<svg xmlns="http://www.w3.org/2000/svg" xmlns:xlink="http://www.w3.org/1999/xlink" width="500" zoomAndPan="magnify" viewBox="0 0 375 374.999991" height="500" preserveAspectRatio="xMidYMid meet" version="1.0"><defs><g/></defs><g fill="#000000" fill-opacity="1"><g transform="translate(145.920113, 197.749528)"><g><path d="M 61.917969 -82.113281 C 62.230469 -82.113281 62.433594 -82.320312 62.433594 -82.628906 C 62.433594 -82.9375 62.230469 -83.144531 61.917969 -83.144531 L 55.738281 -83.144531 C 55.429688 -83.144531 55.222656 -82.9375 55.222656 -82.628906 C 55.222656 -82.320312 55.429688 -82.113281 55.738281 -82.113281 C 56.460938 -82.113281 57.179688 -81.496094 57.179688 -80.671875 L 57.179688 -56.253906 C 57.179688 -43.785156 39.769531 -32.042969 11.847656 -25.757812 L 11.847656 -80.671875 C 11.847656 -81.496094 12.464844 -82.113281 13.289062 -82.113281 C 13.601562 -82.113281 13.804688 -82.320312 13.804688 -82.628906 C 13.804688 -82.9375 13.601562 -83.144531 13.289062 -83.144531 L 7.007812 -83.144531 C 6.800781 -83.144531 6.59375 -82.9375 6.59375 -82.628906 C 6.59375 -82.320312 6.800781 -82.113281 7.007812 -82.113281 C 7.832031 -82.113281 8.550781 -81.496094 8.550781 -80.671875 L 8.550781 -1.957031 C 8.550781 -1.132812 7.832031 -0.414062 7.007812 -0.414062 C 6.800781 -0.414062 6.59375 -0.207031 6.59375 0.101562 C 6.59375 0.308594 6.800781 0.515625 7.007812 0.515625 L 13.289062 0.515625 C 13.601562 0.515625 13.804688 0.308594 13.804688 0.101562 C 13.804688 -0.207031 13.601562 -0.414062 13.289062 -0.414062 C 12.464844 -0.414062 11.847656 -1.132812 11.847656 -1.957031 L 11.847656 -24.625 C 36.472656 -30.1875 53.058594 -39.976562 57.179688 -50.894531 L 57.179688 -1.957031 C 57.179688 -1.132812 56.460938 -0.414062 55.738281 -0.414062 C 55.429688 -0.414062 55.222656 -0.207031 55.222656 0.101562 C 55.222656 0.308594 55.429688 0.515625 55.738281 0.515625 L 61.917969 0.515625 C 62.230469 0.515625 62.433594 0.308594 62.433594 0.101562 C 62.433594 -0.207031 62.230469 -0.414062 61.917969 -0.414062 C 61.09375 -0.414062 60.476562 -1.132812 60.476562 -1.957031 L 60.476562 -80.671875 C 60.476562 -81.496094 61.09375 -82.113281 61.917969 -82.113281 Z M 61.917969 -82.113281 "/></g></g></g><g fill="#000000" fill-opacity="1"><g transform="translate(179.337576, 271.057686)"><g><path d="M 7.007812 -0.414062 C 6.800781 -0.414062 6.59375 -0.207031 6.59375 0.101562 C 6.59375 0.308594 6.800781 0.515625 7.007812 0.515625 L 13.289062 0.515625 C 13.601562 0.515625 13.804688 0.308594 13.804688 0.101562 C 13.804688 -0.207031 13.601562 -0.414062 13.289062 -0.414062 C 12.464844 -0.414062 11.847656 -1.132812 11.847656 -1.957031 L 11.847656 -40.800781 L 23.800781 -40.800781 C 29.363281 -40.800781 34.617188 -37.707031 37.398438 -32.867188 L 52.542969 -6.59375 C 55.015625 -2.371094 59.445312 0.308594 64.289062 0.515625 C 64.289062 0.515625 64.289062 0.515625 64.390625 0.515625 C 64.597656 0.515625 64.804688 0.308594 64.804688 0.101562 C 64.90625 -0.207031 64.703125 -0.414062 64.390625 -0.515625 C 61.507812 -0.722656 58.828125 -2.371094 57.488281 -4.84375 L 42.34375 -31.113281 C 39.664062 -35.75 35.234375 -39.152344 30.289062 -40.800781 L 34.71875 -40.800781 C 46.363281 -40.800781 55.839844 -50.277344 55.839844 -61.917969 C 55.839844 -73.664062 46.363281 -83.144531 34.71875 -83.144531 L 7.007812 -83.144531 C 6.800781 -83.144531 6.59375 -82.9375 6.59375 -82.628906 C 6.59375 -82.320312 6.800781 -82.113281 7.007812 -82.113281 C 7.832031 -82.113281 8.550781 -81.496094 8.550781 -80.671875 L 8.550781 -1.957031 C 8.550781 -1.132812 7.832031 -0.414062 7.007812 -0.414062 Z M 11.847656 -41.828125 L 11.847656 -82.113281 L 33.382812 -82.113281 C 43.785156 -82.113281 52.234375 -73.046875 52.234375 -61.917969 C 52.234375 -50.792969 43.785156 -41.828125 33.382812 -41.828125 Z M 11.847656 -41.828125 "/></g></g></g><g fill="#000000" fill-opacity="1"><g transform="translate(129.619698, 240.547734)"><g><path d="M 44.054688 -43.554688 C 43.722656 -43.640625 43.472656 -43.640625 43.140625 -43.640625 C 42.640625 -43.722656 42.058594 -43.722656 41.3125 -43.722656 C 38.902344 -43.722656 36.574219 -43.390625 34.414062 -42.640625 C 34.414062 -42.640625 34.328125 -42.640625 34.328125 -42.640625 C 29.257812 -40.894531 25.601562 -37.65625 24.105469 -33.746094 C 15.792969 -33.832031 9.058594 -41.144531 9.058594 -50.207031 C 9.058594 -59.347656 15.875 -66.746094 24.1875 -66.746094 C 24.273438 -66.746094 24.273438 -66.746094 24.273438 -66.746094 C 24.605469 -66.746094 24.9375 -66.746094 25.269531 -66.746094 C 27.929688 -66.746094 30.507812 -66.414062 32.917969 -65.582031 C 42.390625 -62.34375 43.554688 -56.191406 42.890625 -51.617188 C 42.890625 -51.535156 42.890625 -51.371094 42.972656 -51.285156 C 43.058594 -51.203125 43.140625 -51.203125 43.308594 -51.203125 L 45.550781 -51.203125 C 45.800781 -51.203125 45.964844 -51.371094 45.964844 -51.617188 C 45.964844 -58.101562 40.980469 -63.921875 33.164062 -66.414062 C 30.671875 -67.164062 28.011719 -67.578125 25.269531 -67.578125 C 24.9375 -67.578125 24.605469 -67.578125 24.355469 -67.578125 C 24.273438 -67.578125 24.273438 -67.578125 24.273438 -67.578125 L 23.191406 -67.578125 C 13.796875 -67.578125 6.152344 -59.847656 6.152344 -50.207031 C 6.152344 -41.976562 11.886719 -34.996094 19.535156 -33.332031 C 11.886719 -31.585938 6.152344 -24.6875 6.152344 -16.375 C 6.152344 -6.816406 13.796875 0.996094 23.191406 0.996094 L 24.273438 0.996094 C 24.355469 0.996094 24.4375 0.996094 24.605469 0.996094 C 24.6875 0.996094 24.769531 0.996094 24.9375 0.996094 L 25.433594 0.996094 C 28.179688 0.996094 30.753906 0.582031 33.164062 -0.25 C 33.164062 -0.25 33.25 -0.25 33.25 -0.25 C 40.980469 -2.742188 45.964844 -8.5625 45.964844 -15.046875 L 52.117188 -18.621094 C 56.691406 -21.28125 59.347656 -25.433594 59.347656 -29.839844 C 59.347656 -36.738281 52.78125 -42.558594 44.054688 -43.554688 Z M 32.917969 -0.996094 C 30.753906 -0.332031 28.429688 0.0820312 26.015625 0.167969 C 26.847656 -2.578125 28.84375 -5.070312 31.835938 -6.816406 L 43.058594 -13.382812 C 43.222656 -9.058594 41.3125 -3.90625 32.917969 -0.996094 Z M 51.039062 -21.113281 L 30.753906 -9.308594 C 26.765625 -6.980469 24.273438 -3.574219 23.691406 0.167969 C 15.542969 -0.25 9.058594 -7.5625 9.058594 -16.375 C 9.058594 -25.351562 15.628906 -32.585938 23.855469 -32.832031 C 23.523438 -31.835938 23.359375 -30.839844 23.359375 -29.757812 C 23.359375 -29.507812 23.605469 -29.34375 23.773438 -29.34375 L 25.769531 -29.34375 C 25.851562 -29.34375 26.015625 -29.425781 26.015625 -29.507812 C 26.101562 -29.589844 26.183594 -29.675781 26.183594 -29.839844 C 25.519531 -33.746094 26.515625 -38.984375 34.578125 -41.8125 C 34.578125 -41.894531 34.660156 -41.894531 34.660156 -41.894531 C 36.738281 -42.558594 38.984375 -42.890625 41.3125 -42.890625 C 41.976562 -42.890625 42.558594 -42.890625 43.058594 -42.890625 C 43.390625 -42.808594 43.640625 -42.808594 43.972656 -42.808594 C 51.703125 -41.8125 57.269531 -36.824219 57.269531 -30.839844 C 57.269531 -27.015625 55.027344 -23.441406 51.039062 -21.113281 Z M 51.039062 -21.113281 "/></g></g></g></svg>